<svg xmlns="http://www.w3.org/2000/svg" xmlns:xlink="http://www.w3.org/1999/xlink" width="1200" height="520" viewBox="0 0 1200 520" role="img" aria-label="LuxSync ecommerce controls">
<defs>
 <linearGradient id="champagne" x1="0" y1="0" x2="1" y2="1"><stop stop-color="#D0BEB0"/><stop offset=".28" stop-color="#9E8B85"/><stop offset=".52" stop-color="#D0BEB0"/><stop offset=".75" stop-color="#967878"/><stop offset="1" stop-color="#9E8B85"/></linearGradient>
 <linearGradient id="steelLight" x1="0" y1="0" x2="1" y2="0"><stop stop-color="#7B96B2" stop-opacity=".15"/><stop offset=".5" stop-color="#D0BEB0" stop-opacity=".92"/><stop offset="1" stop-color="#7B96B2" stop-opacity=".18"/></linearGradient>
 <linearGradient id="fade" x1="0" y1="0" x2="1" y2="0"><stop stop-color="#0D1526" stop-opacity=".96"/><stop offset=".58" stop-color="#0D1526" stop-opacity=".7"/><stop offset="1" stop-color="#0D1526" stop-opacity=".15"/></linearGradient>
 <filter id="shadow"><feDropShadow dx="0" dy="12" stdDeviation="16" flood-color="#0D1526" flood-opacity=".55"/></filter>
 <filter id="glow"><feGaussianBlur stdDeviation="5" result="b"/><feMerge><feMergeNode in="b"/><feMergeNode in="SourceGraphic"/></feMerge></filter>
 <style>.display{font-family:Manrope,Arial,sans-serif;font-weight:600}.body{font-family:Inter,Arial,sans-serif}.caps{letter-spacing:2.5px}.light{fill:#D0BEB0}.muted{fill:#9E8B85}.steel{fill:#7B96B2}.card{fill:#172036;stroke:#9E8B85;stroke-opacity:.28}</style>
</defs><rect width="100%" height="100%" fill="#0D1526"/>
      <text x="60" y="68" class="display light" font-size="32">E-commerce Controls</text>
      <text x="60" y="125" class="body muted" font-size="14">QUANTITY</text><rect x="60" y="145" width="240" height="64" rx="20" class="card"/><text x="96" y="185" class="display steel" font-size="24">−</text><text x="180" y="185" text-anchor="middle" class="body light" font-size="18">1</text><text x="264" y="185" class="display steel" font-size="24">+</text>
      <text x="360" y="125" class="body muted" font-size="14">SORT</text><rect x="360" y="145" width="360" height="64" rx="20" class="card"/><text x="386" y="185" class="body light" font-size="17">Featured</text><path d="M678 172l10 10 10-10" fill="none" stroke="#7B96B2" stroke-width="2"/>
      <text x="780" y="125" class="body muted" font-size="14">VIEW</text><rect x="780" y="145" width="132" height="64" rx="20" class="card"/><g fill="#7B96B2"><rect x="810" y="167" width="12" height="12"/><rect x="828" y="167" width="12" height="12"/><rect x="810" y="185" width="12" height="12"/><rect x="828" y="185" width="12" height="12"/></g><path d="M870 172h22M870 181h22M870 190h22" stroke="#9E8B85" stroke-width="2"/>
      <text x="60" y="285" class="body muted" font-size="14">CART</text><rect x="60" y="305" width="852" height="86" rx="24" class="card"/><circle cx="110" cy="348" r="18" fill="none" stroke="#7B96B2" stroke-width="2"/><text x="154" y="343" class="display light" font-size="17">Curated Smart Hub</text><text x="154" y="368" class="body muted" font-size="14">Compatibility verified</text><text x="700" y="356" class="body light" font-size="17">Qty 1</text><rect x="770" y="324" width="116" height="48" rx="24" fill="#D0BEB0"/><text x="828" y="354" text-anchor="middle" class="display" fill="#0D1526" font-size="13">CHECKOUT</text></svg>
